<svg xmlns="http://www.w3.org/2000/svg" width="183.367" height="16.695" viewBox="0 0 183.367 16.695">
  <g id="Group_7249" data-name="Group 7249" transform="translate(-36 -59.17)">
    <path id="Path_1335" data-name="Path 1335" d="M.5,121.667H20.075v-3.5H.5Zm0,2.892v9.88H20.075v-3.5H3.964v-2.884H20.075v-3.5Zm21.956-6.39v16.269H41.24v-3.494H25.922V118.169Zm21.165,3.5H63.2v-3.5H43.62Zm0,2.892v9.88H63.2v-3.5H47.084v-2.884H63.2v-3.5Zm23.313-3.487c-2.866,4.693-1.051,12.135,3.48,13.242l15.5.124v-3.494l-10.433-.005H71.443c-1.615,0-2.429-3.18-2.429-4.635,0-1.377.663-4.227,2.215-4.609l14.686-.026v-3.5H71.443a5.464,5.464,0,0,0-4.51,2.9m29.789.595v12.772h3.464V121.666h8.451v-3.5H88.271v3.5Zm14.294,5.021v7.751h3.464V130.18h11.1l2.652,4.258h4.093l-3.145-5.052c3.573-2.815,2.572-10.21-1.445-11.135l-16.721-.082v3.5h15.134c2.183,0,2.409,4.545.254,4.995Zm44.227,7.76a5.462,5.462,0,0,0,4.508-2.9c2.859-4.681,1.063-12.123-3.474-13.24L141,118.17a5.462,5.462,0,0,0-4.509,2.9c-2.859,4.681-1.063,12.123,3.475,13.24ZM141,130.939c-1.617,0-2.429-3.182-2.429-4.635,0-1.377.662-4.228,2.215-4.609,4.013-.009,10.446-.008,14.46-.018,1.617,0,2.429,3.181,2.429,4.636,0,1.377-.662,4.227-2.215,4.609-4.013.009-10.445.008-14.46.018m25.554-8.309,13.264,11.521h3.638V118.169h-3.464V129.69l-13.265-11.521h-3.637v15.983h3.464Z" transform="translate(35.708 -58.789)" fill="#fff"/>
    <path id="Path_1335-2" data-name="Path 1335" d="M110.416,117.667l17.032.083.031.007c1.779.406,3.149,2.028,3.664,4.338a8.5,8.5,0,0,1-.059,3.935,6.075,6.075,0,0,1-1.84,3.093l3.287,5.23h-4.781l-2.649-4.213h-10.64v4.213h-4.046V126.1l15.638-.026c.95-.218,1.335-1.422,1.224-2.51-.087-.852-.518-1.847-1.446-1.847H110.416Zm16.964.668L111,118.255v2.874h14.828a1.765,1.765,0,0,1,1.447.757,3.282,3.282,0,0,1,.582,1.615c.139,1.36-.405,2.879-1.715,3.149l-.029.006h-.03L111,126.682v7.085h2.875v-4.213h11.549l2.649,4.213h3.4l-3-4.774.208-.163a5.411,5.411,0,0,0,1.839-2.949,7.905,7.905,0,0,0,.054-3.659C130.11,120.151,128.918,118.7,127.379,118.335Zm-56.21-.667H85.921v4.048l-14.928.026c-1.3.356-1.957,2.919-1.957,4.269,0,1.474.831,4.294,2.134,4.294H75.2l10.716.005v4.045l-15.814-.126-.033-.008a5.454,5.454,0,0,1-2.577-1.478,7.9,7.9,0,0,1-1.706-2.626,11,11,0,0,1-.779-4.734,9.967,9.967,0,0,1,1.405-4.7A5.711,5.711,0,0,1,71.17,117.667Zm14.166.585H71.17a5.143,5.143,0,0,0-4.257,2.734,9.381,9.381,0,0,0-1.319,4.427,10.407,10.407,0,0,0,.736,4.48,7.323,7.323,0,0,0,1.578,2.434,4.885,4.885,0,0,0,2.27,1.317l15.156.12v-2.87L75.2,130.89H71.17c-.837,0-1.559-.668-2.089-1.933a8.425,8.425,0,0,1-.631-2.947,8.261,8.261,0,0,1,.545-2.756,3.061,3.061,0,0,1,1.891-2.09l.034-.008h.035l14.38-.025Zm-63.4-.585h4.048V130.31h15.3v4.043H21.935Zm3.463.585H22.52v15.514H40.7V130.9H25.4Zm62.291-.585h20.932v4.046h-8.443v12.638H96.132V121.714H87.689Zm20.347.585H88.274v2.875h8.443v12.638h2.875V121.129h8.443Zm54.4-.585h4.035l12.852,11.056V117.668h4.046v16.4h-4.036l-12.85-11.055v11.056h-4.046Zm3.818.585H163.02v15.23H165.9V121.738l13.653,11.745h3.233v-15.23h-2.875V130ZM0,117.669H20.142v4.046H0Zm19.557.585H.585v2.875H19.557Zm23.523-.585H63.222v4.046H43.08Zm19.557.585H43.665v2.875H62.637Zm78.021-.584h0l15.3.132.033.008a5.465,5.465,0,0,1,2.577,1.482,7.9,7.9,0,0,1,1.7,2.627,11,11,0,0,1,.775,4.733,9.965,9.965,0,0,1-1.4,4.7,5.707,5.707,0,0,1-4.753,3.011l-15.3-.132-.033-.008a5.466,5.466,0,0,1-2.578-1.482,7.9,7.9,0,0,1-1.7-2.627,11,11,0,0,1-.775-4.733,9.966,9.966,0,0,1,1.4-4.7A5.708,5.708,0,0,1,140.658,117.67Zm15.23.717-15.232-.131a5.141,5.141,0,0,0-4.253,2.733,9.38,9.38,0,0,0-1.318,4.421,10.41,10.41,0,0,0,.732,4.48,5.9,5.9,0,0,0,3.846,3.755l15.232.131a5.139,5.139,0,0,0,4.252-2.733,9.38,9.38,0,0,0,1.318-4.421,10.41,10.41,0,0,0-.732-4.48A5.9,5.9,0,0,0,155.887,118.387Zm-1,2.752c.838,0,1.56.669,2.09,1.934a8.428,8.428,0,0,1,.631,2.946,8.26,8.26,0,0,1-.545,2.756,3.062,3.062,0,0,1-1.892,2.09l-.034.008h-.035c-1.911,0-4.424.006-6.855.008-2.7,0-5.492,0-7.592.01h0c-.837,0-1.559-.669-2.089-1.934a8.428,8.428,0,0,1-.631-2.946,8.261,8.261,0,0,1,.545-2.756,3.06,3.06,0,0,1,1.892-2.09l.034-.008h.035c2,0,4.658-.007,7.224-.009S152.886,121.143,154.891,121.139Zm.177,9.148c1.3-.357,1.958-2.919,1.958-4.269,0-1.474-.831-4.294-2.134-4.294-2,0-4.658.007-7.224.009-2.55,0-5.186,0-7.186.009-1.3.356-1.958,2.918-1.958,4.269,0,1.474.831,4.294,2.134,4.294,2.1-.005,4.892-.007,7.593-.01C150.666,130.293,153.162,130.291,155.068,130.287ZM0,123.991H20.142v4.046H4.046v2.268h16.1v4.047H0Zm19.557.586H.585v9.191H19.557v-2.876H3.461v-3.439h16.1Zm23.523-.586H63.222v4.046h-16.1v2.268h16.1v4.047H43.08Zm19.557.586H43.665v9.191H62.637v-2.876h-16.1v-3.439h16.1Z" transform="translate(36 -58.496)" fill="#fff"/>
  </g>
</svg>
