<?xml version="1.0" encoding="utf-8"?>
<!-- Generator: Adobe Illustrator 22.1.0, SVG Export Plug-In . SVG Version: 6.00 Build 0)  -->
<svg version="1.1" id="Capa_1" xmlns="http://www.w3.org/2000/svg" xmlns:xlink="http://www.w3.org/1999/xlink" x="0px" y="0px"
	 viewBox="0 0 39 25.5" style="enable-background:new 0 0 39 25.5;" xml:space="preserve">
<style type="text/css">
	.st0{fill:none;stroke:#FFFFFF;stroke-width:0.5;stroke-miterlimit:10;}
</style>
<g>
	<g id="Group_7020_1_">
		<path id="Path_1383_1_" class="st0" d="M19.1,4.2l3.6,0c2.5,0,4.4,2,4.4,4.5l0,1.8"/>
		<path id="Path_1384_1_" class="st0" d="M16.4,20.1l-0.9,0c-2.5,0-4.4-2-4.4-4.5l0-1.8"/>
		<path id="Path_1385_1_" class="st0" d="M25.3,18.9l-3.6,0l0,0.4c0,0.5-0.4,0.9-0.9,0.9l-0.9,0c-0.5,0-0.9-0.4-0.9-0.9l0-1.6
			c0-0.9,0.7-1.5,1.6-1.5l5.8,0c0.9,0,1.5,0.7,1.5,1.6l0,1.6c0,0.5-0.4,0.9-0.9,0.9l-0.9,0c-0.5,0-0.9-0.4-0.9-0.9L25.3,18.9z"/>
		<path id="Path_1386_1_" class="st0" d="M20.1,16.3l0.5-2.2c0.1-0.6,0.7-1,1.3-1l3.2,0c0.6,0,1.2,0.4,1.3,1l0.5,2.2"/>
		<line id="Line_45_1_" class="st0" x1="20.2" y1="15.8" x2="19.1" y2="15.3"/>
		<line id="Line_46_1_" class="st0" x1="26.8" y1="15.9" x2="27.9" y2="15.3"/>
		<path id="Path_1387_1_" class="st0" d="M14.4,4.3c0.1-0.2,0.4-0.3,0.6-0.1c0.1,0.1,0.2,0.2,0.2,0.4l0,2.9l2.6,0
			c0.2,0,0.4,0.2,0.4,0.4c0,0.1,0,0.2-0.1,0.3l-3.2,4.6c-0.1,0.2-0.4,0.3-0.6,0.1c-0.1-0.1-0.2-0.2-0.2-0.4l0-2.9l-2.6,0
			c-0.2,0-0.4-0.2-0.4-0.4c0-0.1,0-0.2,0.1-0.3L14.4,4.3z"/>
	</g>
</g>
</svg>
