<?xml version="1.0" encoding="utf-8"?>
<!-- Generator: Adobe Illustrator 16.0.0, SVG Export Plug-In . SVG Version: 6.00 Build 0)  -->
<!DOCTYPE svg PUBLIC "-//W3C//DTD SVG 1.1//EN" "http://www.w3.org/Graphics/SVG/1.1/DTD/svg11.dtd">
<svg version="1.1" id="Layer_1" xmlns="http://www.w3.org/2000/svg" xmlns:xlink="http://www.w3.org/1999/xlink" x="0px" y="0px"
	 width="221px" height="167.084px" viewBox="161.861 -93.916 221 167.084" enable-background="new 161.861 -93.916 221 167.084"
	 xml:space="preserve">
<g>
	<path fill="#36D98F" d="M234.392,16.99l1.466,0.43c-0.186-0.598-0.385-1.298-0.654-2.195c-0.755-2.49-1.879-6.038-3.359-10.257
		c-2.945-8.439-7.3-19.585-12.765-30.208c-5.394-10.645-12.11-20.67-18.557-26.899c-1.594-1.583-3.174-2.896-4.611-4.024
		c-1.451-1.092-2.774-1.981-3.927-2.615c-1.097-0.715-2.078-1.071-2.69-1.391c-0.654-0.313-0.981-0.466-0.981-0.466
		s0.355,0.142,0.996,0.413c0.654,0.285,1.65,0.583,2.789,1.238c1.195,0.577,2.576,1.395,4.112,2.419
		c1.509,1.057,3.188,2.298,4.896,3.799c6.902,5.935,14.302,15.736,20.379,26.206C227.647-16.11,232.712-5.071,236.2,3.329
		c1.735,4.191,3.088,7.738,4.013,10.235c0.228,0.651,0.455,1.224,0.612,1.722l0.54-2.725c0.128-0.655,3.159-16.416-0.654-33.983
		c-4.07-18.792-16.479-42.215-52.54-47.047l-2.988-0.409c-0.911-0.125-1.765,0.438-2.035,1.306l-0.968,3.045
		c-0.171,0.583-4.554,14.718-0.882,31.642C184.926-16.146,197.079,6.083,234.392,16.99"/>
	<path fill="#36D98F" d="M370.111,19.993l-2.42-1.793c-29.258-21.62-54.475-13.444-70.47-2.782
		c-14.957,9.965-23.752,23.385-24.121,23.954l-1.509,2.327c0.47-0.235,1.024-0.498,1.636-0.812c2.405-1.159,5.85-2.768,10.02-4.561
		c8.353-3.601,19.652-8.005,31.35-11.221c11.67-3.284,23.794-5.166,32.901-4.632c2.263,0.11,4.341,0.377,6.147,0.683
		c1.808,0.338,3.373,0.708,4.64,1.117c1.267,0.334,2.206,0.8,2.86,1.057c0.654,0.267,0.996,0.409,0.996,0.409
		s-0.342-0.125-1.01-0.353c-0.684-0.203-1.623-0.619-2.918-0.875c-1.267-0.349-2.832-0.626-4.639-0.85
		c-1.808-0.192-3.871-0.342-6.105-0.313c-8.979-0.014-20.763,2.512-32.048,6.397c-11.313,3.814-22.2,8.794-30.197,12.8
		c-4.013,2-7.286,3.779-9.549,5.045c-0.812,0.449-1.438,0.797-1.992,1.11l1.352,0.712c34.367,18.145,58.588,10.637,72.848,1.139
		c14.415-9.613,21.104-22.794,21.389-23.35l1.423-2.857C371.092,21.53,370.865,20.53,370.111,19.993"/>
	<path fill="#36D98F" d="M291.386-27.638c-4.397,11.317-9.919,22.122-14.331,30.048c-2.233,3.985-4.154,7.236-5.563,9.51
		c-0.37,0.591-0.697,1.099-0.982,1.558l2.477-1.273c0.598-0.306,14.843-7.695,26.27-21.57c12.225-14.832,22.912-39.095,4.369-70.396
		l-1.537-2.579c-0.455-0.79-1.438-1.125-2.276-0.811l-2.975,1.138c-0.598,0.217-14.387,5.55-25.388,18.92
		c-10.9,13.224-20.834,36.548-6.247,72.587l0.555,1.405c0.37-0.509,0.797-1.099,1.323-1.857c1.495-2.146,3.587-5.219,5.978-8.994
		c4.795-7.546,10.844-17.877,15.796-28.75c5.009-10.826,8.709-22.303,9.605-31.236c0.257-2.22,0.313-4.284,0.313-6.098
		c-0.057-1.821-0.171-3.401-0.385-4.707c-0.143-1.313-0.455-2.295-0.583-2.989c-0.157-0.69-0.242-1.049-0.242-1.049
		s0.114,0.359,0.313,1.035c0.17,0.68,0.555,1.662,0.754,2.967c0.285,1.288,0.484,2.878,0.641,4.714
		c0.113,1.836,0.185,3.928,0.043,6.187C298.943-50.762,295.826-38.894,291.386-27.638"/>
</g>
</svg>
